Coordinates
version=1
nRows=22
nColumns=24
inDegrees=yes

Units are S.I. units (second, meters, Newtons, ...)
Angles are in degrees.

endheader
time	pelvis_tilt	pelvis_list	pelvis_rotation	pelvis_tx	pelvis_ty	pelvis_tz	hip_flexion_r	hip_adduction_r	hip_rotation_r	knee_angle_r	ankle_angle_r	subtalar_angle_r	mtp_angle_r	hip_flexion_l	hip_adduction_l	hip_rotation_l	knee_angle_l	ankle_angle_l	subtalar_angle_l	mtp_angle_l	lumbar_extension	lumbar_bending	lumbar_rotation
      0.92933333	      4.49739740	     -4.10148648	     -2.95749463	     -0.22104107	      1.01248208	      0.30739240	    -16.87630941	      5.27021386	     -5.18122809	     -7.56872460	      6.25515696	     -6.17025914	      1.93634663	     17.75740688	     -4.19837882	     -5.58840416	     -2.91852497	     -2.28749106	    -17.18015857	     -5.77117052	    -17.04041075	      5.21988961	      6.32709653
      0.93350000	      4.53227761	     -4.11334023	     -3.11024515	     -0.21514559	      1.01181163	      0.30753902	    -17.03908467	      5.16765296	     -5.10765125	     -8.06071160	      6.40181642	     -5.97613987	      2.00632132	     17.57872136	     -4.20161727	     -5.48628842	     -2.72538940	     -2.26091776	    -17.19730605	     -5.79302070	    -17.07684223	      5.13857458	      6.40605432
      0.93766667	      4.58739665	     -4.08528402	     -3.28209088	     -0.20917968	      1.01124082	      0.30774824	    -17.21152939	      5.01396402	     -5.02320363	     -8.57187902	      6.52439778	     -5.73728403	      2.09639358	     17.36358363	     -4.16936357	     -5.40276055	     -2.59620964	     -2.26525124	    -17.23025134	     -5.81346482	    -17.12660503	      4.98532631	      6.53358741
      0.94183333	      4.63409985	     -4.07108737	     -3.43128562	     -0.20322690	      1.01067858	      0.30792667	    -17.35039854	      4.88409544	     -4.93781197	     -9.12845647	      6.62231213	     -5.62804730	      2.14853885	     17.18806512	     -4.14618432	     -5.30224967	     -2.60296143	     -2.18864482	    -17.27830229	     -5.81976548	    -17.15247388	      4.86364220	      6.59240623
      0.94600000	      4.75894451	     -3.97946008	     -3.65838729	     -0.19715505	      1.01034643	      0.30823716	    -17.54509836	      4.63091501	     -4.86159319	     -9.73274020	      6.68331417	     -5.30874261	      2.29642143	     16.86596138	     -4.05898004	     -5.31298547	     -2.57661448	     -2.29993224	    -17.34712713	     -5.83212235	    -17.26139139	      4.61762253	      6.82010951
      0.95016667	      4.82741250	     -3.94185201	     -3.81945757	     -0.19121543	      1.00991751	      0.30847133	    -17.64893248	      4.46772521	     -4.76209558	    -10.38606506	      6.71212979	     -5.20478644	      2.37296502	     16.69102135	     -4.01718854	     -5.26531761	     -2.76555322	     -2.28310098	    -17.44148982	     -5.83280096	    -17.32560199	      4.44013031	      6.87891671
      0.95433333	      4.94204326	     -3.83537206	     -4.05849713	     -0.18517149	      1.00965422	      0.30881076	    -17.76502154	      4.19177765	     -4.65091473	    -11.10718222	      6.74662076	     -4.92880195	      2.51423315	     16.40590390	     -3.91733156	     -5.29869573	     -2.91390522	     -2.40763505	    -17.56320124	     -5.82886258	    -17.43420761	      4.17005879	      7.05407001
      0.95850000	      5.11533429	     -3.72881499	     -4.26051046	     -0.17910059	      1.00953156	      0.30909789	    -17.93263930	      3.92008276	     -4.58013223	    -11.83294508	      6.63611377	     -4.75026339	      2.85352745	     16.06641588	     -3.80327115	     -5.34548587	     -3.11481871	     -2.58910057	    -17.68226427	     -5.80211122	    -17.60111005	      3.89860767	      7.33123899
      0.96266667	      5.23480924	     -3.62582607	     -4.47357334	     -0.17305990	      1.00935348	      0.30939658	    -17.99045889	      3.64915770	     -4.49272083	    -12.65751671	      6.56159356	     -4.55810564	      3.15713285	     15.80328681	     -3.69951214	     -5.40593888	     -3.39606909	     -2.76037122	    -17.82176533	     -5.76711553	    -17.70405713	      3.63472976	      7.44313104
      0.96683333	      5.41918789	     -3.50962079	     -4.67828603	     -0.16699556	      1.00932539	      0.30966590	    -18.09540916	      3.35497095	     -4.42399900	    -13.50844855	      6.39444415	     -4.39105753	      3.84399729	     15.45689053	     -3.56879289	     -5.44265911	     -3.69118328	     -2.92446075	    -18.04730480	     -5.66528438	    -17.87852953	      3.34159946	      7.70966545
      0.97100000	      5.46543497	     -3.43179581	     -4.86437069	     -0.16100037	      1.00911289	      0.30992578	    -17.99768028	      3.12382513	     -4.32468409	    -14.46256574	      6.23500983	     -4.26268640	      3.99943661	     15.31751887	     -3.49468214	     -5.52392887	     -4.11173430	     -3.14154977	    -18.17400623	     -5.64210024	    -17.91023689	      3.11773163	      7.63733344
      0.97516667	      5.66512446	     -3.31064603	     -5.07952075	     -0.15494371	      1.00920443	      0.31019279	    -18.02969998	      2.80219466	     -4.30243777	    -15.44890155	      5.91519938	     -4.11320330	     11.14800246	     14.96512015	     -3.36712154	     -5.68403838	     -4.47023627	     -3.42469974	    -18.30411323	     -4.32949973	    -18.10235640	      2.82447952	      7.82736251
      0.97933333	      5.72211463	     -3.19113264	     -5.22262421	     -0.14889542	      1.00908532	      0.31029310	    -17.86399865	      2.51800365	     -4.30863885	    -16.53283450	      5.64669586	     -3.97364875	     11.20890304	     14.79993025	     -3.22247919	     -5.69570632	     -4.88309966	     -3.76913025	    -18.62461624	     -4.31571132	    -18.12216429	      2.56366271	      7.92349623
      0.98350000	      5.83562031	     -3.06637911	     -5.37933918	     -0.14284445	      1.00909722	      0.31042019	    -17.71932549	      2.21110563	     -4.32060207	    -17.67225100	      5.27426196	     -3.80671621	     11.28546110	     14.56865699	     -3.07876314	     -5.79056519	     -5.30779867	     -4.08204991	    -18.84150267	     -4.30108556	    -18.20721811	      2.29338282	      7.94882086
      0.98766667	      5.95534469	     -2.93108363	     -5.52888932	     -0.13684352	      1.00915821	      0.31051158	    -17.52889475	      1.88721036	     -4.34933283	    -18.89282734	      4.89385868	     -3.62170655	     11.43843461	     14.33780048	     -2.92045635	     -5.88485829	     -5.74565849	     -4.46537357	    -19.12082676	     -4.27274905	    -18.31019288	      1.99766901	      8.04735636
      0.99183333	      6.04119184	     -2.79911842	     -5.65828648	     -0.13080217	      1.00921598	      0.31057551	    -17.27106649	      1.57444103	     -4.38891765	    -20.14792341	      4.32628305	     -3.48476204	     11.54466377	     14.15305975	     -2.77089411	     -5.99837676	     -6.21555609	     -4.77341562	    -19.29848637	     -4.25545820	    -18.36385760	      1.71989195	      8.04364960
      0.99600000	      6.15069327	     -2.64767524	     -5.79257745	     -0.12480907	      1.00931944	      0.31060056	    -16.97169539	      1.22250760	     -4.46042580	    -21.51798332	      3.79083712	     -3.32451578	     11.69621680	     13.93844784	     -2.59686838	     -6.12787308	     -6.67106373	     -5.13023563	    -19.53467623	     -4.23324409	    -18.44471289	      1.42437068	      8.07098271
      1.00016667	      6.28812429	     -2.45751633	     -5.71777079	     -0.11882716	      1.00941365	      0.31001846	    -16.67791862	      0.83989737	     -4.83506891	    -22.92681034	      3.19692084	     -3.16041879	     16.50286591	     13.72358602	     -2.28736080	     -5.91309696	     -7.10885023	     -5.61251058	    -20.15386682	     -3.48258616	    -18.56589922	      1.17270210	      7.79047808
      1.00433333	      6.34986547	     -2.30402362	     -5.87404761	     -0.11284487	      1.00952842	      0.31010001	    -16.23378953	      0.47731303	     -4.87075985	    -24.42097125	      2.45669717	     -3.02605870	     16.57688236	     13.57276620	     -2.14195947	     -6.16306783	     -7.61224947	     -5.85314080	    -20.14570707	     -3.47607889	    -18.58798404	      0.87536301	      7.89852384
      1.00850000	      6.41158135	     -2.13926600	     -5.99460966	     -0.10699486	      1.00962682	      0.31009062	    -15.72414510	      0.10782081	     -4.93997318	    -26.02423660	      1.79123993	     -2.96112348	     16.72313979	     13.44595677	     -1.97311155	     -6.35749003	     -8.13572632	     -6.14526748	    -20.27168499	     -3.46455698	    -18.63743747	      0.55746698	      7.97015268
      1.01266667	      6.50715903	     -1.94524375	     -6.05483476	     -0.10105326	      1.00978678	      0.30989690	    -15.23553333	     -0.29968062	     -5.10101399	    -27.63287669	      0.94614050	     -2.92974983	     16.84053341	     13.27193415	     -1.74721827	     -6.47935511	     -8.63786915	     -6.31865674	    -20.35577552	     -3.45566341	    -18.69723630	      0.26238222	      7.92990515
      1.01683333	      6.58858747	     -1.72951713	     -6.10402932	     -0.09515623	      1.00992778	      0.30965990	    -14.67865734	     -0.73645245	     -5.28703403	    -29.31972198	      0.09984169	     -2.91264500	     16.96600241	     13.12055363	     -1.49804429	     -6.60463879	     -9.14591821	     -6.48467487	    -20.45680574	     -3.44819518	    -18.74769397	     -0.06092224	      7.85523871
